<svg xmlns="http://www.w3.org/2000/svg" width="101.635" height="37.407" viewBox="0 0 101.635 37.407">
  <g id="Logo" transform="translate(0)">
    <path id="Path_234" data-name="Path 234" d="M169.263,116.427c1.438,1.929,2.08,2.894,1.711,3.656a17.128,17.128,0,0,1-10.137,3.314,17.435,17.435,0,0,1-16.6-12.41.044.044,0,0,0,0-.024c-.117-.4-.214-.8-.3-1.212-.194-.934-.34-1.864-.437-2.779-.029-.42-.044-.841-.044-1.271A17.545,17.545,0,0,1,160.837,88a17.148,17.148,0,0,1,10.817,3.838c-1.132,1.429-2.362,3.076-3.606,4.659-4.237-2.78-8.392-3.388-12.707-1.054-5.535,3-7.581,10.436-4.466,16.09a11.244,11.244,0,0,0,15.618,4.377C167.81,115.1,168.393,115.26,169.263,116.427Z" transform="translate(-143.45 -87.502)" fill="#57a284"/>
    <path id="Path_235" data-name="Path 235" d="M231.923,112.547a1.5,1.5,0,0,1,.186.084c1.41.785,2.1.133,2.529-1.237a18.172,18.172,0,0,0,.542-9.387c-1.685-7.813-8.711-15.42-20.128-13.786-7.205,1.031-14.743,8.358-14.31,18.148.494,11.184,11.008,19.453,21.492,16.456,1.427-.408,2.818-.917,4.2-1.19l6.2,2.017.789-2.146h0c.351-.961.669-1.823,1.023-2.654.457-1.073.173-1.618-.895-2.025-2.72-1.038-5.4-2.191-8.107-3.258-3.423-1.347-5.017-.785-6.6,2.523a1.992,1.992,0,0,1-2.591,1.233,11.779,11.779,0,0,1-9.189-14.74,11.61,11.61,0,0,1,13.977-8.257c5.681,1.281,9.256,7.2,8.3,13.744C228.877,111.337,228.877,111.337,231.923,112.547Z" transform="translate(-172.892 -87.5)" fill="#57a284"/>
    <path id="Path_236" data-name="Path 236" d="M311.75,121.172c-3.4-9.278-6.752-18.577-10.249-27.817-1.568-4.143-4.838-6.44-8.442-6.362-3.671.08-6.764,2.616-8.317,6.82q-3.461,9.366-6.922,18.731-2.057,5.575-4.1,11.15c3.783,1.451,5.619.719,7.25-2.748.262-.558.507-1.127.719-1.707,2.852-7.8,5.715-15.6,8.528-23.41.527-1.464,1.243-2.685,2.877-2.8,1.75-.128,2.385,1.295,3.017,2.617a10.188,10.188,0,0,1,.409.946q2.263,6.3,4.508,12.606c.26.737.414,1.513.742,2.737-2.611-1.042-4.765-1.955-6.956-2.764-2.926-1.081-4.795-.533-6.273,1.6-.936,1.354-.743,2.133.833,2.744,5.056,1.961,10.076,4.017,15.113,6.028,2.421.966,4.849,1.912,7.566,2.981A13.315,13.315,0,0,0,311.75,121.172Z" transform="translate(-210.417 -86.991)" fill="#57a284"/>
  </g>
</svg>
